<mxfile host="app.diagrams.net" modified="2023-12-04T19:49:45.540Z" agent="Mozilla/5.0 (X11; Linux x86_64; rv:120.0) Gecko/20100101 Firefox/120.0" etag="OVwBp_VzQABEGGRmPteH" version="22.1.5" type="device">
  <diagram name="Pagina-1" id="Kx4IccF5TP9m-yPugrQJ">
    <mxGraphModel dx="1195" dy="604" grid="1" gridSize="10" guides="1" tooltips="1" connect="1" arrows="1" fold="1" page="1" pageScale="1" pageWidth="827" pageHeight="1169" math="0" shadow="0">
      <root>
        <mxCell id="0" />
        <mxCell id="1" parent="0" />
        <mxCell id="nmuJ0MsZKHHojjxWRflp-19" value="" style="rounded=0;whiteSpace=wrap;html=1;fillColor=none;fontStyle=1" vertex="1" parent="1">
          <mxGeometry x="329" y="290" width="170" height="70" as="geometry" />
        </mxCell>
        <mxCell id="nmuJ0MsZKHHojjxWRflp-1" value="&lt;font face=&quot;Courier New&quot; style=&quot;font-size: 16px;&quot;&gt;:- ~capital(X), &lt;/font&gt;&lt;font face=&quot;Courier New&quot; style=&quot;font-size: 16px;&quot;&gt;city(X) &lt;/font&gt;" style="text;html=1;strokeColor=none;fillColor=none;align=center;verticalAlign=middle;whiteSpace=wrap;rounded=0;fontFamily=Courier New;fontSize=16;fontStyle=1" vertex="1" parent="1">
          <mxGeometry x="269" y="240" width="290" height="30" as="geometry" />
        </mxCell>
        <mxCell id="nmuJ0MsZKHHojjxWRflp-15" value="" style="endArrow=none;html=1;rounded=0;entryX=0.5;entryY=1;entryDx=0;entryDy=0;exitX=0.5;exitY=0;exitDx=0;exitDy=0;fontStyle=1" edge="1" parent="1" source="nmuJ0MsZKHHojjxWRflp-16" target="nmuJ0MsZKHHojjxWRflp-1">
          <mxGeometry width="50" height="50" relative="1" as="geometry">
            <mxPoint x="240" y="410" as="sourcePoint" />
            <mxPoint x="245" y="370" as="targetPoint" />
          </mxGeometry>
        </mxCell>
        <mxCell id="nmuJ0MsZKHHojjxWRflp-16" value="&lt;font face=&quot;Courier New&quot; style=&quot;font-size: 16px;&quot;&gt;:- capital(rome).&lt;br style=&quot;font-size: 16px;&quot;&gt;&lt;/font&gt;" style="text;html=1;strokeColor=none;fillColor=none;align=center;verticalAlign=middle;whiteSpace=wrap;rounded=0;fontFamily=Courier New;fontSize=16;fontStyle=1" vertex="1" parent="1">
          <mxGeometry x="329" y="290" width="170" height="20" as="geometry" />
        </mxCell>
        <mxCell id="nmuJ0MsZKHHojjxWRflp-17" value="" style="endArrow=none;html=1;rounded=0;entryX=0.5;entryY=1;entryDx=0;entryDy=0;exitX=0.5;exitY=0;exitDx=0;exitDy=0;fontStyle=1" edge="1" parent="1" source="nmuJ0MsZKHHojjxWRflp-18" target="nmuJ0MsZKHHojjxWRflp-16">
          <mxGeometry width="50" height="50" relative="1" as="geometry">
            <mxPoint x="414" y="340" as="sourcePoint" />
            <mxPoint x="509" y="290" as="targetPoint" />
          </mxGeometry>
        </mxCell>
        <mxCell id="nmuJ0MsZKHHojjxWRflp-31" value="&lt;font style=&quot;font-size: 16px;&quot; face=&quot;Courier New&quot;&gt;X/rome&lt;/font&gt;" style="edgeLabel;html=1;align=center;verticalAlign=middle;resizable=0;points=[];fontStyle=1" vertex="1" connectable="0" parent="nmuJ0MsZKHHojjxWRflp-17">
          <mxGeometry x="0.6" y="1" relative="1" as="geometry">
            <mxPoint x="37" y="12" as="offset" />
          </mxGeometry>
        </mxCell>
        <mxCell id="nmuJ0MsZKHHojjxWRflp-18" value="success" style="text;html=1;strokeColor=none;fillColor=none;align=center;verticalAlign=middle;whiteSpace=wrap;rounded=0;fontFamily=Courier New;fontSize=16;fontStyle=1" vertex="1" parent="1">
          <mxGeometry x="369.5" y="340" width="89" height="20" as="geometry" />
        </mxCell>
        <mxCell id="nmuJ0MsZKHHojjxWRflp-20" value="fail" style="text;html=1;strokeColor=none;fillColor=none;align=center;verticalAlign=middle;whiteSpace=wrap;rounded=0;fontFamily=Courier New;fontSize=16;fontStyle=1" vertex="1" parent="1">
          <mxGeometry x="324" y="380" width="180" height="30" as="geometry" />
        </mxCell>
        <mxCell id="nmuJ0MsZKHHojjxWRflp-21" value="" style="endArrow=none;html=1;rounded=0;entryX=0.5;entryY=1;entryDx=0;entryDy=0;exitX=0.5;exitY=0;exitDx=0;exitDy=0;fontStyle=1" edge="1" parent="1" source="nmuJ0MsZKHHojjxWRflp-20" target="nmuJ0MsZKHHojjxWRflp-19">
          <mxGeometry width="50" height="50" relative="1" as="geometry">
            <mxPoint x="449" y="380" as="sourcePoint" />
            <mxPoint x="499" y="330" as="targetPoint" />
          </mxGeometry>
        </mxCell>
      </root>
    </mxGraphModel>
  </diagram>
</mxfile>
